<?xml version="1.0" standalone="no"?><!DOCTYPE svg PUBLIC "-//W3C//DTD SVG 1.1//EN" "http://www.w3.org/Graphics/SVG/1.1/DTD/svg11.dtd"><svg t="1666191707383" class="icon" viewBox="0 0 1103 1024" version="1.1" xmlns="http://www.w3.org/2000/svg" p-id="5488" xmlns:xlink="http://www.w3.org/1999/xlink" width="215.4296875" height="200"><path d="M910.860488 271.484878l71.68-78.173658c25.350244 22.852683 64.437073 20.979512 87.539512-4.245854 23.227317-25.350244 21.479024-64.686829-3.746341-87.914146-14.985366-13.736585-34.965854-18.731707-53.572683-15.36 1.873171-18.856585-4.870244-38.212683-19.85561-52.074147-18.981463-17.482927-45.955122-20.854634-67.933659-10.739512-7.367805 3.371707-14.11122 8.241951-19.980487 14.610732-23.102439 25.225366-21.603902 64.187317 3.371707 87.539512" fill="#FFCCA6" p-id="5489"></path><path d="M971.426341 117.010732c0.874146-16.858537-4.745366-34.466341-16.359024-47.203903-19.605854-21.479024-49.077073-20.729756-65.685854 1.498537-16.483902 22.103415-5.494634 43.457561 13.861464 64.936585L695.07122 416.593171c-3.996098 5.369756-3.371707 13.861463 1.24878 18.981463l40.585366 44.206829c4.745366 5.12 11.738537 4.995122 15.734634-0.374634l225.529756-280.351219c19.605854 20.979512 22.602927 28.971707 39.086829 6.868292 16.60878-22.228293 14.236098-52.698537-5.494634-74.052682-11.48878-12.612683-26.599024-17.607805-40.33561-14.860488z" fill="#FFE8D4" p-id="5490"></path><path d="M886.259512 315.816585c-4.245854 0-8.491707-1.498537-11.863414-4.620487-7.118049-6.493659-7.617561-17.607805-1.123903-24.725854l96.156098-104.897561c6.493659-7.118049 17.482927-7.617561 24.600975-1.123903 18.107317 16.359024 46.329756 14.985366 62.938537-2.997073 16.733659-18.232195 15.484878-46.579512-2.747317-63.31317-10.489756-9.61561-24.476098-13.611707-38.462439-10.989269-5.369756 0.999024-10.989268-0.62439-14.985366-4.245853-3.996098-3.746341-6.119024-9.116098-5.619512-14.610732 1.373659-14.236098-3.87122-27.847805-14.236098-37.463415-8.866341-8.117073-20.230244-12.238049-32.218536-11.738536-11.988293 0.499512-22.977561 5.619512-31.094635 14.485853-16.483902 17.982439-15.484878 46.204878 2.372683 62.938537 6.993171 6.493659 7.367805 17.482927 0.999025 24.600976l-94.532683 103.149268c-6.493659 7.118049-17.607805 7.617561-24.725854 1.123902-7.118049-6.493659-7.617561-17.607805-1.123902-24.725853l84.167805-91.785366c-20.355122-29.845854-18.357073-71.180488 6.99317-98.903415C906.115122 10.24 925.845854 1.123902 947.075122 0.249756c21.229268-0.874146 41.58439 6.493659 57.319024 20.854634 13.611707 12.487805 22.228293 28.846829 24.97561 46.454634 17.857561 1.123902 34.840976 8.366829 48.452683 20.854635 32.343415 29.720976 34.59122 80.296585 4.870244 112.64-25.350244 27.722927-66.310244 33.342439-97.90439 15.609756L899.121951 310.072195c-3.371707 3.746341-8.117073 5.74439-12.862439 5.74439z" fill="" p-id="5491"></path><path d="M510.876098 296.710244c33.342439-2.997073 64.187317-6.993171 92.909268-15.484878 83.16878-24.35122 184.32-67.059512 199.804878-61.44 18.606829 13.611707 75.051707 76.550244 94.907317 87.289756 14.360976 38.087805-0.124878 256.749268-100.776585 432.827317-53.322927 93.40878-167.086829 188.316098-249.63122 225.28" fill="#FFA73E" p-id="5492"></path><path d="M745.521951 232.398049c15.484878 13.112195 62.439024 74.052683 78.922927 84.542439 11.863415 36.963902-0.124878 248.507317-83.793171 419.090732C696.32 826.318049 601.787317 918.228293 533.229268 954.068293c-94.282927 49.201951-219.785366 62.813659-317.190244-16.234147-69.557073-56.444878-107.644878-124.003902-122.755122-234.645853-12.737561-92.909268 26.22439-313.943415 251.754147-369.389269 106.27122-30.220488 165.338537-18.357073 234.396097-41.959024s153.100488-64.936585 166.087805-59.441951z" fill="#FFC373" p-id="5493"></path><path d="M360.647805 1024H358.4c-76.425366-0.374634-144.483902-20.979512-202.177561-61.190244-45.205854-31.469268-77.549268-64.936585-101.900488-105.521951C30.09561 816.952195 13.736585 768.499512 4.245854 708.932683 0 682.083902-10.489756 587.301463 33.092683 493.518049c20.604878-44.456585 50.450732-82.169756 88.663415-112.265366 44.206829-34.965854 100.027317-59.691707 165.838048-73.553171 68.058537-16.60878 128.749268-21.10439 182.197074-25.100488 48.827317-3.621463 90.91122-6.743415 128.999024-17.982439 32.468293-9.490732 68.183415-22.103415 99.777561-33.092683 76.300488-26.723902 97.28-32.967805 111.016585-27.972682 1.498537 0.499512 2.997073 1.373659 4.245854 2.247804 9.116098 6.618537 23.851707 21.354146 40.96 38.337561 18.107317 18.107317 42.958049 42.833171 52.074146 47.703415 3.746341 1.998049 6.493659 5.244878 7.992195 9.240976 9.740488 25.974634 7.118049 97.404878-6.36878 173.830244-12.487805 70.43122-39.086829 175.079024-95.531707 273.732682-25.724878 45.080976-67.434146 94.158049-117.510244 138.115122-46.204878 40.710244-97.404878 75.176585-140.113171 94.282927-62.68878 28.222439-129.873171 42.958049-194.684878 42.958049z m436.323902-786.981463c-13.736585 1.748293-54.072195 15.859512-86.915122 27.348292-31.96878 11.239024-68.183415 23.851707-101.525853 33.592195-41.58439 12.238049-87.539512 15.609756-136.117073 19.23122-52.199024 3.87122-111.516098 8.366829-176.827318 24.226341-0.124878 0-0.374634 0.124878-0.499512 0.124878-112.390244 23.726829-189.814634 79.672195-230.275122 166.462439-39.461463 84.917073-29.970732 170.833171-26.099512 195.184391C55.945366 811.082927 95.656585 877.892683 176.078049 933.962927c115.137561 80.046829 263.867317 60.316098 364.76878 15.110244 77.299512-34.59122 188.81561-125.627317 241.514147-217.912195 53.947317-94.282927 79.547317-194.809756 91.535609-262.493659 13.237073-74.677073 13.486829-130.372683 9.490732-150.478049-12.487805-8.99122-29.845854-25.974634-53.322927-49.451707-12.362927-12.238049-25.225366-24.97561-33.092683-31.719024z m2.872195-0.124878z" fill="" p-id="5494"></path><path d="M330.801951 724.167805m-37.463414 0a37.463415 37.463415 0 1 0 74.926829 0 37.463415 37.463415 0 1 0-74.926829 0Z" fill="" p-id="5495"></path><path d="M301.45561 859.036098m-37.463415 0a37.463415 37.463415 0 1 0 74.926829 0 37.463415 37.463415 0 1 0-74.926829 0Z" fill="" p-id="5496"></path><path d="M473.412683 829.065366m-37.463415 0a37.463415 37.463415 0 1 0 74.92683 0 37.463415 37.463415 0 1 0-74.92683 0Z" fill="" p-id="5497"></path><path d="M625.639024 724.167805m-37.463414 0a37.463415 37.463415 0 1 0 74.926829 0 37.463415 37.463415 0 1 0-74.926829 0Z" fill="" p-id="5498"></path><path d="M486.524878 669.096585m-37.463415 0a37.463415 37.463415 0 1 0 74.92683 0 37.463415 37.463415 0 1 0-74.92683 0Z" fill="" p-id="5499"></path></svg>