<?xml version="1.0" standalone="no"?><!DOCTYPE svg PUBLIC "-//W3C//DTD SVG 1.1//EN" "http://www.w3.org/Graphics/SVG/1.1/DTD/svg11.dtd"><svg t="1666191682480" class="icon" viewBox="0 0 1024 1024" version="1.1" xmlns="http://www.w3.org/2000/svg" p-id="4149" xmlns:xlink="http://www.w3.org/1999/xlink" width="200" height="200"><path d="M837.90664 317.696639c0 71.031714-57.530823 128.562537-128.562537 128.562537-35.515857 0-11.798076-122.237795-11.798076-122.237796s-116.764461 29.191115-116.764461-6.324741c0-71.031714 57.530823-128.562537 128.562537-128.562538s128.562537 57.530823 128.562537 128.562538z" fill="#F9EDA7" p-id="4150"></path><path d="M214.189809 502.452073h474.112365l-85.140753 456.597695-274.883003-7.297778z" fill="#77E5E2" p-id="4151"></path><path d="M359.902126 624.20335a18.244447 17.27141 0 1 0 36.488894 0 18.244447 17.27141 0 1 0-36.488894 0Z" fill="#FCFCFC" p-id="4152"></path><path d="M403.567169 623.838461c0-14.960447-12.162965-27.245041-27.24504-27.245041-14.960447 0-27.245041 12.162965-27.245041 27.245041 0 14.960447 12.162965 27.123411 27.245041 27.123411 14.960447 0.12163 27.245041-12.162965 27.24504-27.123411z m-41.718969 0c0-8.027557 6.446371-14.473928 14.473929-14.473928 8.027557 0 14.473928 6.446371 14.473928 14.473928 0 8.027557-6.446371 14.473928-14.473928 14.473928-8.027557 0-14.473928-6.446371-14.473929-14.473928z m32.110227 82.70816c-14.960447 0-27.245041 12.162965-27.245041 27.123411s12.162965 27.245041 27.245041 27.245041c14.960447 0 27.245041-12.162965 27.245041-27.245041 0-14.960447-12.162965-27.123411-27.245041-27.123411z m0 41.597339c-8.027557 0-14.473928-6.446371-14.473928-14.473928 0-7.905927 6.446371-14.473928 14.473928-14.473928 8.027557 0 14.473928 6.446371 14.473928 14.473928 0 8.027557-6.446371 14.473928-14.473928 14.473928z m69.450529 56.922675c-14.960447 0-27.245041 12.162965-27.245041 27.245041 0 14.960447 12.162965 27.245041 27.245041 27.245041 14.960447 0 27.245041-12.162965 27.245041-27.245041 0-15.082076-12.162965-27.245041-27.245041-27.245041z m0 41.597339c-7.905927 0-14.473928-6.446371-14.473928-14.473928 0-8.027557 6.446371-14.473928 14.473928-14.473928 8.027557 0 14.473928 6.446371 14.473928 14.473928 0 8.027557-6.446371 14.473928-14.473928 14.473928z m83.316308-113.60209c-14.960447 0-27.123411 12.162965-27.123411 27.245041 0 14.960447 12.162965 27.123411 27.123411 27.123411s27.245041-12.162965 27.245041-27.123411c0-15.082076-12.162965-27.245041-27.245041-27.245041z m0 41.597339c-7.905927 0-14.473928-6.446371-14.473928-14.473928 0-8.027557 6.446371-14.473928 14.473928-14.473928 8.027557 0 14.473928 6.446371 14.473928 14.473928 0 8.027557-6.446371 14.473928-14.473928 14.473928z m314.047749-454.89488c0-85.748901-69.815418-155.442689-155.442689-155.44269-78.086234 0-142.793206 57.895712-153.618244 133.062834h-205.554104c-0.608148-9.852001-1.216296-18.609336-1.946074-25.663855-5.594964-60.814824-43.300154-84.410975-49.989785-88.059865L169.551728 109.345053 149.969355 142.063428l125.035277 74.558974 1.216297 0.729778c0.243259 0.12163 25.907115 14.109039 29.920893 57.895712 0.608148 6.203112 1.094667 13.74415 1.702815 22.258225H182.930989l25.055708 194.607436 123.818981 486.03207H618.243497l104.844756-503.911628c77.356456-9.000594 137.684761-74.680603 137.68476-154.469652z m-38.678227-9.487113h-89.76268l0.243259-4.257038 62.03112-62.03112c15.446965 18.244447 25.420596 41.110821 27.488301 66.288158z m-107.277349-107.277349c25.177337 2.067704 48.043711 12.041335 66.288157 27.4883L714.817437 296.776339v-93.776458z m-19.095855 0V296.776339l-66.288158-66.288158c18.244447-15.446965 41.110821-25.420596 66.288158-27.4883z m-79.789048 40.989191l53.395415 53.395415h-79.059271c3.892149-20.068892 12.892743-38.313339 25.663856-53.395415z m76.748307 91.587125l-8.635705 153.010096H354.185533c-0.608148-20.190521-3.040741-93.533199-5.959853-153.010096h344.455161z m-382.7685 0c2.919112 58.260601 5.351704 131.360019 5.959853 153.010096h-71.761492L229.393515 335.576197h80.518826z m38.556598 604.256087L248.854258 507.803777h434.217841l-82.586531 432.150137H348.468939zM725.277586 435.312507l4.378668-77.599715 51.44934 51.449341c-15.690224 13.257632-34.786079 22.501485-55.828008 26.150374z m5.838223-103.14194l0.12163-2.797482h90.857347c-2.067704 25.177337-12.041335 48.043711-27.488301 66.288157l-63.490676-63.490675z m0 0" fill="#441818" p-id="4153"></path><path d="M375.71398 733.061884a18.244447 17.27141 0 1 0 36.488894 0 18.244447 17.27141 0 1 0-36.488894 0Z" fill="#FCFCFC" p-id="4154"></path><path d="M445.042879 831.581898a18.244447 17.27141 0 1 0 36.488894 0 18.244447 17.27141 0 1 0-36.488894 0Z" fill="#FCFCFC" p-id="4155"></path><path d="M528.967336 760.428554a18.244447 17.27141 0 1 0 36.488894 0 18.244447 17.27141 0 1 0-36.488894 0Z" fill="#FCFCFC" p-id="4156"></path></svg>